<?xml version="1.0" encoding="UTF-8" standalone="no"?>
<!-- Created with Inkscape (http://www.inkscape.org/) -->

<svg
   width="11in"
   height="8.5in"
   viewBox="0 0 279.39998 215.9"
   version="1.1"
   id="svg1"
   inkscape:version="1.3 (0e150ed6c4, 2023-07-21)"
   sodipodi:docname="wrapid20.svg"
   xmlns:inkscape="http://www.inkscape.org/namespaces/inkscape"
   xmlns:sodipodi="http://sodipodi.sourceforge.net/DTD/sodipodi-0.dtd"
   xmlns:xlink="http://www.w3.org/1999/xlink"
   xmlns="http://www.w3.org/2000/svg"
   xmlns:svg="http://www.w3.org/2000/svg">
  <sodipodi:namedview
     id="namedview1"
     pagecolor="#ffffff"
     bordercolor="#000000"
     borderopacity="0.25"
     inkscape:showpageshadow="2"
     inkscape:pageopacity="0.0"
     inkscape:pagecheckerboard="0"
     inkscape:deskcolor="#d1d1d1"
     inkscape:document-units="mm"
     showguides="true"
     inkscape:zoom="1.3073257"
     inkscape:cx="397.37612"
     inkscape:cy="431.79754"
     inkscape:window-width="1914"
     inkscape:window-height="1056"
     inkscape:window-x="0"
     inkscape:window-y="18"
     inkscape:window-maximized="1"
     inkscape:current-layer="layer1">
    <sodipodi:guide
       position="0,10.0076"
       orientation="0,101.75999"
       id="guide1"
       inkscape:locked="false" />
    <sodipodi:guide
       position="26.923999,10.0076"
       orientation="37.823999,0"
       id="guide2"
       inkscape:locked="false" />
    <sodipodi:guide
       position="26.923999,0"
       orientation="0,-101.75999"
       id="guide3"
       inkscape:locked="false" />
    <sodipodi:guide
       position="0,0"
       orientation="-37.823999,0"
       id="guide4"
       inkscape:locked="false" />
  </sodipodi:namedview>
  <defs
     id="defs1">
    <rect
       x="11.971403"
       y="16.057465"
       width="74.158974"
       height="6.1086822"
       id="rect7" />
    <rect
       x="2.6317415"
       y="9.80937"
       width="100.03895"
       height="8.3336191"
       id="rect6" />
    <rect
       x="2.6317415"
       y="9.80937"
       width="100.03895"
       height="8.3336191"
       id="rect32" />
  </defs>
  <g
     inkscape:label="Layer 1"
     inkscape:groupmode="layer"
     id="layer1">
    <text
       xml:space="preserve"
       style="font-size:1.41111px;font-variation-settings:normal;word-spacing:1.19062px;opacity:1;vector-effect:none;fill:#ff0000;fill-opacity:1;fill-rule:nonzero;stroke-width:0.41992;stroke-linecap:butt;stroke-linejoin:miter;stroke-miterlimit:4;stroke-dasharray:none;stroke-dashoffset:0;stroke-opacity:1;-inkscape-stroke:none"
       x="4.337822"
       y="1.2782788"
       id="text5"><tspan
         sodipodi:role="line"
         id="tspan5"
         style="stroke-width:0.419921"
         x="4.337822"
         y="1.2782788" /></text>
    <g
       id="g33"
       inkscape:tile-cx="16.001995"
       inkscape:tile-cy="6.8833984"
       inkscape:tile-w="27.343914"
       inkscape:tile-h="10.427518"
       inkscape:tile-x0="2.3300377"
       inkscape:tile-y0="1.6696393"
       transform="translate(48.482626,71.869551)">
      <path
         style="fill:#000000;fill-rule:nonzero;stroke-width:0.419921"
         id="path4"
         sodipodi:type="arc"
         sodipodi:cx="4.564116"
         sodipodi:cy="3.2685997"
         sodipodi:rx="0.50011802"
         sodipodi:ry="0.5"
         sodipodi:start="0.065856307"
         sodipodi:end="0.030727909"
         sodipodi:open="true"
         sodipodi:arc-type="arc"
         d="M 5.0631499,3.3015041 A 0.50011802,0.5 0 0 1 4.5355877,3.7677856 0.50011802,0.5 0 0 1 4.064581,3.2444631 0.50011802,0.5 0 0 1 4.5838705,2.76899 0.50011802,0.5 0 0 1 5.0639979,3.2839613" />
      <path
         style="fill:#000000;fill-rule:nonzero;stroke-width:0.419921"
         id="path4-5"
         sodipodi:type="arc"
         sodipodi:cx="7.104116"
         sodipodi:cy="3.2685997"
         sodipodi:rx="0.50011802"
         sodipodi:ry="0.5"
         sodipodi:start="0.065856307"
         sodipodi:end="0.030727909"
         sodipodi:open="true"
         sodipodi:arc-type="arc"
         d="M 7.6031499,3.3015041 A 0.50011802,0.5 0 0 1 7.0755876,3.7677856 0.50011802,0.5 0 0 1 6.604581,3.2444631 0.50011802,0.5 0 0 1 7.1238705,2.76899 0.50011802,0.5 0 0 1 7.6039979,3.2839613" />
      <path
         style="font-variation-settings:normal;opacity:1;vector-effect:none;fill:#000000;fill-opacity:1;fill-rule:nonzero;stroke-width:0.419921;stroke-linecap:butt;stroke-linejoin:miter;stroke-miterlimit:4;stroke-dasharray:none;stroke-dashoffset:0;stroke-opacity:1;-inkscape-stroke:none;stop-color:#000000;stop-opacity:1"
         id="path4-5-2"
         sodipodi:type="arc"
         sodipodi:cx="9.6441154"
         sodipodi:cy="3.2685997"
         sodipodi:rx="0.50011802"
         sodipodi:ry="0.5"
         sodipodi:start="0.065856307"
         sodipodi:end="0.030727909"
         sodipodi:open="true"
         sodipodi:arc-type="arc"
         d="M 10.143149,3.3015041 A 0.50011802,0.5 0 0 1 9.6155871,3.7677856 0.50011802,0.5 0 0 1 9.1445805,3.2444631 0.50011802,0.5 0 0 1 9.66387,2.76899 0.50011802,0.5 0 0 1 10.143997,3.2839613" />
      <path
         style="fill:#000000;fill-rule:nonzero;stroke-width:0.419921"
         id="path4-5-2-6"
         sodipodi:type="arc"
         sodipodi:cx="12.184116"
         sodipodi:cy="3.2685997"
         sodipodi:rx="0.50011802"
         sodipodi:ry="0.5"
         sodipodi:start="0.065856307"
         sodipodi:end="0.030727909"
         sodipodi:open="true"
         sodipodi:arc-type="arc"
         d="M 12.68315,3.3015041 A 0.50011802,0.5 0 0 1 12.155588,3.7677856 0.50011802,0.5 0 0 1 11.684581,3.2444631 0.50011802,0.5 0 0 1 12.203871,2.76899 0.50011802,0.5 0 0 1 12.683998,3.2839613" />
      <path
         style="fill:#000000;fill-rule:nonzero;stroke-width:0.419921"
         id="path4-9"
         sodipodi:type="arc"
         sodipodi:cx="14.724116"
         sodipodi:cy="3.2685997"
         sodipodi:rx="0.50011802"
         sodipodi:ry="0.5"
         sodipodi:start="0.065856307"
         sodipodi:end="0.030727909"
         sodipodi:open="true"
         sodipodi:arc-type="arc"
         d="M 15.22315,3.3015041 A 0.50011802,0.5 0 0 1 14.695588,3.7677856 0.50011802,0.5 0 0 1 14.224581,3.2444631 0.50011802,0.5 0 0 1 14.743871,2.76899 0.50011802,0.5 0 0 1 15.223998,3.2839613" />
      <path
         style="fill:#000000;fill-rule:nonzero;stroke-width:0.419921"
         id="path4-5-20"
         sodipodi:type="arc"
         sodipodi:cx="17.264116"
         sodipodi:cy="3.2685997"
         sodipodi:rx="0.50011802"
         sodipodi:ry="0.5"
         sodipodi:start="0.065856307"
         sodipodi:end="0.030727909"
         sodipodi:open="true"
         sodipodi:arc-type="arc"
         d="M 17.76315,3.3015041 A 0.50011802,0.5 0 0 1 17.235588,3.7677856 0.50011802,0.5 0 0 1 16.764581,3.2444631 0.50011802,0.5 0 0 1 17.283871,2.76899 0.50011802,0.5 0 0 1 17.763998,3.2839613" />
      <path
         style="font-variation-settings:normal;vector-effect:none;fill:#000000;fill-opacity:1;fill-rule:nonzero;stroke-width:0.419921;stroke-linecap:butt;stroke-linejoin:miter;stroke-miterlimit:4;stroke-dasharray:none;stroke-dashoffset:0;stroke-opacity:1;-inkscape-stroke:none;stop-color:#000000"
         id="path4-5-2-2"
         sodipodi:type="arc"
         sodipodi:cx="19.804113"
         sodipodi:cy="3.2685997"
         sodipodi:rx="0.50011802"
         sodipodi:ry="0.5"
         sodipodi:start="0.065856307"
         sodipodi:end="0.030727909"
         sodipodi:open="true"
         sodipodi:arc-type="arc"
         d="M 20.303147,3.3015041 A 0.50011802,0.5 0 0 1 19.775585,3.7677856 0.50011802,0.5 0 0 1 19.304578,3.2444631 0.50011802,0.5 0 0 1 19.823868,2.76899 0.50011802,0.5 0 0 1 20.303995,3.2839613" />
      <path
         style="fill:#000000;fill-rule:nonzero;stroke-width:0.419921"
         id="path4-5-2-6-3"
         sodipodi:type="arc"
         sodipodi:cx="22.344114"
         sodipodi:cy="3.2685997"
         sodipodi:rx="0.50011802"
         sodipodi:ry="0.5"
         sodipodi:start="0.065856307"
         sodipodi:end="0.030727909"
         sodipodi:open="true"
         sodipodi:arc-type="arc"
         d="M 22.843148,3.3015041 A 0.50011802,0.5 0 0 1 22.315586,3.7677856 0.50011802,0.5 0 0 1 21.844579,3.2444631 0.50011802,0.5 0 0 1 22.363869,2.76899 0.50011802,0.5 0 0 1 22.843996,3.2839613" />
      <path
         style="font-variation-settings:normal;vector-effect:none;fill:#000000;fill-opacity:1;fill-rule:nonzero;stroke-width:0.419921;stroke-linecap:butt;stroke-linejoin:miter;stroke-miterlimit:4;stroke-dasharray:none;stroke-dashoffset:0;stroke-opacity:1;-inkscape-stroke:none;stop-color:#000000"
         id="path4-5-2-2-2"
         sodipodi:type="arc"
         sodipodi:cx="24.884115"
         sodipodi:cy="3.2685997"
         sodipodi:rx="0.50011802"
         sodipodi:ry="0.5"
         sodipodi:start="0.065856307"
         sodipodi:end="0.030727909"
         sodipodi:open="true"
         sodipodi:arc-type="arc"
         d="M 25.383149,3.3015041 A 0.50011802,0.5 0 0 1 24.855587,3.7677856 0.50011802,0.5 0 0 1 24.38458,3.2444631 0.50011802,0.5 0 0 1 24.90387,2.76899 0.50011802,0.5 0 0 1 25.383997,3.2839613" />
      <path
         style="fill:#000000;fill-rule:nonzero;stroke-width:0.419921"
         id="path4-5-2-6-3-2"
         sodipodi:type="arc"
         sodipodi:cx="27.424116"
         sodipodi:cy="3.2685997"
         sodipodi:rx="0.50011802"
         sodipodi:ry="0.5"
         sodipodi:start="0.065856307"
         sodipodi:end="0.030727909"
         sodipodi:open="true"
         sodipodi:arc-type="arc"
         d="M 27.92315,3.3015041 A 0.50011802,0.5 0 0 1 27.395588,3.7677856 0.50011802,0.5 0 0 1 26.924581,3.2444631 0.50011802,0.5 0 0 1 27.443871,2.76899 0.50011802,0.5 0 0 1 27.923998,3.2839613" />
      <path
         style="fill:#000000;fill-rule:nonzero;stroke-width:0.419921"
         id="path4-3"
         sodipodi:type="arc"
         sodipodi:cx="4.564116"
         sodipodi:cy="10.5076"
         sodipodi:rx="0.50011802"
         sodipodi:ry="0.5"
         sodipodi:start="0.065856307"
         sodipodi:end="0.030727909"
         sodipodi:open="true"
         sodipodi:arc-type="arc"
         d="M 5.0631499,10.540504 A 0.50011802,0.5 0 0 1 4.5355877,11.006786 0.50011802,0.5 0 0 1 4.064581,10.483463 0.50011802,0.5 0 0 1 4.5838705,10.00799 0.50011802,0.5 0 0 1 5.0639979,10.522961" />
      <path
         style="fill:#000000;fill-rule:nonzero;stroke-width:0.419921"
         id="path4-5-6"
         sodipodi:type="arc"
         sodipodi:cx="7.1041164"
         sodipodi:cy="10.5076"
         sodipodi:rx="0.50011802"
         sodipodi:ry="0.5"
         sodipodi:start="0.065856307"
         sodipodi:end="0.030727909"
         sodipodi:open="true"
         sodipodi:arc-type="arc"
         d="M 7.6031503,10.540504 A 0.50011802,0.5 0 0 1 7.0755881,11.006786 0.50011802,0.5 0 0 1 6.6045815,10.483463 0.50011802,0.5 0 0 1 7.123871,10.00799 0.50011802,0.5 0 0 1 7.6039984,10.522961" />
      <path
         style="font-variation-settings:normal;vector-effect:none;fill:#000000;fill-opacity:1;fill-rule:nonzero;stroke-width:0.419921;stroke-linecap:butt;stroke-linejoin:miter;stroke-miterlimit:4;stroke-dasharray:none;stroke-dashoffset:0;stroke-opacity:1;-inkscape-stroke:none;stop-color:#000000"
         id="path4-5-2-1"
         sodipodi:type="arc"
         sodipodi:cx="9.6441164"
         sodipodi:cy="10.5076"
         sodipodi:rx="0.50011802"
         sodipodi:ry="0.5"
         sodipodi:start="0.065856307"
         sodipodi:end="0.030727909"
         sodipodi:open="true"
         sodipodi:arc-type="arc"
         d="M 10.14315,10.540504 A 0.50011802,0.5 0 0 1 9.6155881,11.006786 0.50011802,0.5 0 0 1 9.1445814,10.483463 0.50011802,0.5 0 0 1 9.6638709,10.00799 0.50011802,0.5 0 0 1 10.143998,10.522961" />
      <path
         style="fill:#000000;fill-rule:nonzero;stroke-width:0.419921"
         id="path4-5-2-6-2"
         sodipodi:type="arc"
         sodipodi:cx="12.184116"
         sodipodi:cy="10.5076"
         sodipodi:rx="0.50011802"
         sodipodi:ry="0.5"
         sodipodi:start="0.065856307"
         sodipodi:end="0.030727909"
         sodipodi:open="true"
         sodipodi:arc-type="arc"
         d="m 12.68315,10.540504 a 0.50011802,0.5 0 0 1 -0.527562,0.466282 0.50011802,0.5 0 0 1 -0.471007,-0.523323 0.50011802,0.5 0 0 1 0.51929,-0.475473 0.50011802,0.5 0 0 1 0.480127,0.514971" />
      <path
         style="fill:#000000;fill-rule:nonzero;stroke-width:0.419921"
         id="path4-9-9"
         sodipodi:type="arc"
         sodipodi:cx="14.724116"
         sodipodi:cy="10.5076"
         sodipodi:rx="0.50011802"
         sodipodi:ry="0.5"
         sodipodi:start="0.065856307"
         sodipodi:end="0.030727909"
         sodipodi:open="true"
         sodipodi:arc-type="arc"
         d="m 15.22315,10.540504 a 0.50011802,0.5 0 0 1 -0.527562,0.466282 0.50011802,0.5 0 0 1 -0.471007,-0.523323 0.50011802,0.5 0 0 1 0.51929,-0.475473 0.50011802,0.5 0 0 1 0.480127,0.514971" />
      <path
         style="fill:#000000;fill-rule:nonzero;stroke-width:0.419921"
         id="path4-5-20-3"
         sodipodi:type="arc"
         sodipodi:cx="17.264116"
         sodipodi:cy="10.5076"
         sodipodi:rx="0.50011802"
         sodipodi:ry="0.5"
         sodipodi:start="0.065856307"
         sodipodi:end="0.030727909"
         sodipodi:open="true"
         sodipodi:arc-type="arc"
         d="m 17.76315,10.540504 a 0.50011802,0.5 0 0 1 -0.527562,0.466282 0.50011802,0.5 0 0 1 -0.471007,-0.523323 0.50011802,0.5 0 0 1 0.51929,-0.475473 0.50011802,0.5 0 0 1 0.480127,0.514971" />
      <path
         style="font-variation-settings:normal;vector-effect:none;fill:#000000;fill-opacity:1;fill-rule:nonzero;stroke-width:0.419921;stroke-linecap:butt;stroke-linejoin:miter;stroke-miterlimit:4;stroke-dasharray:none;stroke-dashoffset:0;stroke-opacity:1;-inkscape-stroke:none;stop-color:#000000"
         id="path4-5-2-2-1"
         sodipodi:type="arc"
         sodipodi:cx="19.804113"
         sodipodi:cy="10.5076"
         sodipodi:rx="0.50011802"
         sodipodi:ry="0.5"
         sodipodi:start="0.065856307"
         sodipodi:end="0.030727909"
         sodipodi:open="true"
         sodipodi:arc-type="arc"
         d="m 20.303147,10.540504 a 0.50011802,0.5 0 0 1 -0.527562,0.466282 0.50011802,0.5 0 0 1 -0.471007,-0.523323 0.50011802,0.5 0 0 1 0.51929,-0.475473 0.50011802,0.5 0 0 1 0.480127,0.514971" />
      <path
         style="fill:#000000;fill-rule:nonzero;stroke-width:0.419921"
         id="path4-5-2-6-3-9"
         sodipodi:type="arc"
         sodipodi:cx="22.344114"
         sodipodi:cy="10.5076"
         sodipodi:rx="0.50011802"
         sodipodi:ry="0.5"
         sodipodi:start="0.065856307"
         sodipodi:end="0.030727909"
         sodipodi:open="true"
         sodipodi:arc-type="arc"
         d="m 22.843148,10.540504 a 0.50011802,0.5 0 0 1 -0.527562,0.466282 0.50011802,0.5 0 0 1 -0.471007,-0.523323 0.50011802,0.5 0 0 1 0.51929,-0.475473 0.50011802,0.5 0 0 1 0.480127,0.514971" />
      <path
         style="font-variation-settings:normal;vector-effect:none;fill:#000000;fill-opacity:1;fill-rule:nonzero;stroke-width:0.419921;stroke-linecap:butt;stroke-linejoin:miter;stroke-miterlimit:4;stroke-dasharray:none;stroke-dashoffset:0;stroke-opacity:1;-inkscape-stroke:none;stop-color:#000000"
         id="path4-5-2-2-2-4"
         sodipodi:type="arc"
         sodipodi:cx="24.884115"
         sodipodi:cy="10.5076"
         sodipodi:rx="0.50011802"
         sodipodi:ry="0.5"
         sodipodi:start="0.065856307"
         sodipodi:end="0.030727909"
         sodipodi:open="true"
         sodipodi:arc-type="arc"
         d="m 25.383149,10.540504 a 0.50011802,0.5 0 0 1 -0.527562,0.466282 0.50011802,0.5 0 0 1 -0.471007,-0.523323 0.50011802,0.5 0 0 1 0.51929,-0.475473 0.50011802,0.5 0 0 1 0.480127,0.514971" />
      <path
         style="fill:#000000;fill-rule:nonzero;stroke-width:0.419921"
         id="path4-5-2-6-3-2-7"
         sodipodi:type="arc"
         sodipodi:cx="27.424116"
         sodipodi:cy="10.5076"
         sodipodi:rx="0.50011802"
         sodipodi:ry="0.5"
         sodipodi:start="0.065856307"
         sodipodi:end="0.030727909"
         sodipodi:open="true"
         sodipodi:arc-type="arc"
         d="m 27.92315,10.540504 a 0.50011802,0.5 0 0 1 -0.527562,0.466282 0.50011802,0.5 0 0 1 -0.471007,-0.523323 0.50011802,0.5 0 0 1 0.51929,-0.475473 0.50011802,0.5 0 0 1 0.480127,0.514971" />
      <text
         xml:space="preserve"
         style="font-size:1.41111px;font-variation-settings:normal;word-spacing:1.18561px;white-space:pre;inline-size:22.2342;display:inline;opacity:1;vector-effect:none;fill:#ff0000;fill-opacity:1;fill-rule:nonzero;stroke-width:0.41992;stroke-linecap:butt;stroke-linejoin:miter;stroke-miterlimit:4;stroke-dasharray:none;stroke-dashoffset:0;stroke-opacity:1;-inkscape-stroke:none"
         x="1.0880328"
         y="7.7789998"
         id="text4"
         transform="matrix(0.9995263,0,0,1,5.6037813,1.751908)"><tspan
           x="1.0880328"
           y="7.7789998"
           id="tspan2"><tspan
             dx="0 -1.1856101 1.1856102 -1.1856101 1.1856102 -1.1856103 1.1856104 -1.1856098 1.1856099 -1.1856103 1.1856099 -1.1856093 1.1856099 -1.1856093 1.1856099 -1.1856103 1.1856099 -1.1856103"
             style="stroke-width:0.419921"
             id="tspan1">9 8 7 6 5 4 3 2 1 </tspan></tspan></text>
      <text
         xml:space="preserve"
         style="font-size:1.41111px;font-variation-settings:normal;word-spacing:1.18269px;white-space:pre;inline-size:22.2342;display:inline;vector-effect:none;fill:#ff0000;fill-opacity:1;fill-rule:nonzero;stroke-width:0.41992;stroke-linecap:butt;stroke-linejoin:miter;stroke-miterlimit:4;stroke-dasharray:none;stroke-dashoffset:0;stroke-opacity:1;-inkscape-stroke:none"
         x="1.0880328"
         y="7.7789998"
         id="text4-0"
         transform="translate(2.5670781,1.751908)"><tspan
           x="1.0880328"
           y="7.7789998"
           id="tspan3">10</tspan></text>
      <text
         xml:space="preserve"
         transform="matrix(0.26458333,0,0,0.26458333,2.9560417,1.4200157)"
         id="text6"
         style="font-size:5.33333px;font-variation-settings:normal;word-spacing:1.15px;white-space:pre;shape-inside:url(#rect6);display:inline;opacity:1;vector-effect:none;fill:#ff0000;fill-opacity:1;fill-rule:nonzero;stroke-width:1.5871;stroke-linecap:butt;stroke-linejoin:miter;stroke-miterlimit:4;stroke-dasharray:none;stroke-dashoffset:0;stroke-opacity:1;-inkscape-stroke:none"><tspan
           x="2.6308594"
           y="14.527341"
           id="tspan6"><tspan
             dx="0 0 -1.15 1.1499996 0 -1.1499995 1.1499987 0 -1.1500005 1.1500006 0 -1.1500005 1.1499987 0 -1.1499966 1.1499987 0 -1.1500005 1.1500025 0 -1.1500005 1.1500025 0 -1.1500005 1.1499949 0 -1.1500005 1.1500025"
             id="tspan4">11 12 13 14 15 16 17 18 19 20</tspan></tspan></text>
      <path
         style="font-variation-settings:normal;opacity:1;vector-effect:none;fill:#000000;fill-opacity:1;fill-rule:nonzero;stroke-width:0.464532;stroke-linecap:butt;stroke-linejoin:miter;stroke-miterlimit:4;stroke-dasharray:none;stroke-dashoffset:0;stroke-opacity:1;-inkscape-stroke:none"
         id="path7"
         sodipodi:type="arc"
         sodipodi:cx="29.452589"
         sodipodi:cy="7.086709"
         sodipodi:rx="0.91854912"
         sodipodi:ry="0.96530938"
         sodipodi:start="1.5707963"
         sodipodi:end="4.712389"
         sodipodi:open="true"
         sodipodi:arc-type="arc"
         d="m 29.452589,8.0520184 a 0.91854912,0.96530938 0 0 1 -0.795487,-0.4826547 0.91854912,0.96530938 0 0 1 0,-0.9653094 0.91854912,0.96530938 0 0 1 0.795487,-0.4826547" />
      <rect
         style="fill:none;fill-opacity:0.01105;stroke:#000000;stroke-width:0.41992;stroke-opacity:1;-inkscape-stroke:none"
         id="rect4"
         width="26.923996"
         height="10.007599"
         x="2.5399978"
         y="1.8795995" />
      <path
         style="fill:#000000;fill-rule:nonzero;stroke-width:0.419921"
         id="path8"
         sodipodi:type="arc"
         sodipodi:cx="4.564116"
         sodipodi:cy="3.2685997"
         sodipodi:rx="0.50011802"
         sodipodi:ry="0.5"
         sodipodi:start="0.065856307"
         sodipodi:end="0.030727909"
         sodipodi:open="true"
         sodipodi:arc-type="arc"
         d="M 5.0631499,3.3015041 A 0.50011802,0.5 0 0 1 4.5355877,3.7677856 0.50011802,0.5 0 0 1 4.064581,3.2444631 0.50011802,0.5 0 0 1 4.5838705,2.76899 0.50011802,0.5 0 0 1 5.0639979,3.2839613" />
      <path
         style="fill:#000000;fill-rule:nonzero;stroke-width:0.419921"
         id="path9"
         sodipodi:type="arc"
         sodipodi:cx="7.104116"
         sodipodi:cy="3.2685997"
         sodipodi:rx="0.50011802"
         sodipodi:ry="0.5"
         sodipodi:start="0.065856307"
         sodipodi:end="0.030727909"
         sodipodi:open="true"
         sodipodi:arc-type="arc"
         d="M 7.6031499,3.3015041 A 0.50011802,0.5 0 0 1 7.0755876,3.7677856 0.50011802,0.5 0 0 1 6.604581,3.2444631 0.50011802,0.5 0 0 1 7.1238705,2.76899 0.50011802,0.5 0 0 1 7.6039979,3.2839613" />
      <path
         style="font-variation-settings:normal;opacity:1;vector-effect:none;fill:#000000;fill-opacity:1;fill-rule:nonzero;stroke-width:0.419921;stroke-linecap:butt;stroke-linejoin:miter;stroke-miterlimit:4;stroke-dasharray:none;stroke-dashoffset:0;stroke-opacity:1;-inkscape-stroke:none;stop-color:#000000;stop-opacity:1"
         id="path10"
         sodipodi:type="arc"
         sodipodi:cx="9.6441154"
         sodipodi:cy="3.2685997"
         sodipodi:rx="0.50011802"
         sodipodi:ry="0.5"
         sodipodi:start="0.065856307"
         sodipodi:end="0.030727909"
         sodipodi:open="true"
         sodipodi:arc-type="arc"
         d="M 10.143149,3.3015041 A 0.50011802,0.5 0 0 1 9.6155871,3.7677856 0.50011802,0.5 0 0 1 9.1445805,3.2444631 0.50011802,0.5 0 0 1 9.66387,2.76899 0.50011802,0.5 0 0 1 10.143997,3.2839613" />
      <path
         style="fill:#000000;fill-rule:nonzero;stroke-width:0.419921"
         id="path11"
         sodipodi:type="arc"
         sodipodi:cx="12.184116"
         sodipodi:cy="3.2685997"
         sodipodi:rx="0.50011802"
         sodipodi:ry="0.5"
         sodipodi:start="0.065856307"
         sodipodi:end="0.030727909"
         sodipodi:open="true"
         sodipodi:arc-type="arc"
         d="M 12.68315,3.3015041 A 0.50011802,0.5 0 0 1 12.155588,3.7677856 0.50011802,0.5 0 0 1 11.684581,3.2444631 0.50011802,0.5 0 0 1 12.203871,2.76899 0.50011802,0.5 0 0 1 12.683998,3.2839613" />
      <path
         style="fill:#000000;fill-rule:nonzero;stroke-width:0.419921"
         id="path12"
         sodipodi:type="arc"
         sodipodi:cx="14.724116"
         sodipodi:cy="3.2685997"
         sodipodi:rx="0.50011802"
         sodipodi:ry="0.5"
         sodipodi:start="0.065856307"
         sodipodi:end="0.030727909"
         sodipodi:open="true"
         sodipodi:arc-type="arc"
         d="M 15.22315,3.3015041 A 0.50011802,0.5 0 0 1 14.695588,3.7677856 0.50011802,0.5 0 0 1 14.224581,3.2444631 0.50011802,0.5 0 0 1 14.743871,2.76899 0.50011802,0.5 0 0 1 15.223998,3.2839613" />
      <path
         style="fill:#000000;fill-rule:nonzero;stroke-width:0.419921"
         id="path13"
         sodipodi:type="arc"
         sodipodi:cx="17.264116"
         sodipodi:cy="3.2685997"
         sodipodi:rx="0.50011802"
         sodipodi:ry="0.5"
         sodipodi:start="0.065856307"
         sodipodi:end="0.030727909"
         sodipodi:open="true"
         sodipodi:arc-type="arc"
         d="M 17.76315,3.3015041 A 0.50011802,0.5 0 0 1 17.235588,3.7677856 0.50011802,0.5 0 0 1 16.764581,3.2444631 0.50011802,0.5 0 0 1 17.283871,2.76899 0.50011802,0.5 0 0 1 17.763998,3.2839613" />
      <path
         style="font-variation-settings:normal;vector-effect:none;fill:#000000;fill-opacity:1;fill-rule:nonzero;stroke-width:0.419921;stroke-linecap:butt;stroke-linejoin:miter;stroke-miterlimit:4;stroke-dasharray:none;stroke-dashoffset:0;stroke-opacity:1;-inkscape-stroke:none;stop-color:#000000"
         id="path14"
         sodipodi:type="arc"
         sodipodi:cx="19.804113"
         sodipodi:cy="3.2685997"
         sodipodi:rx="0.50011802"
         sodipodi:ry="0.5"
         sodipodi:start="0.065856307"
         sodipodi:end="0.030727909"
         sodipodi:open="true"
         sodipodi:arc-type="arc"
         d="M 20.303147,3.3015041 A 0.50011802,0.5 0 0 1 19.775585,3.7677856 0.50011802,0.5 0 0 1 19.304578,3.2444631 0.50011802,0.5 0 0 1 19.823868,2.76899 0.50011802,0.5 0 0 1 20.303995,3.2839613" />
      <path
         style="fill:#000000;fill-rule:nonzero;stroke-width:0.419921"
         id="path15"
         sodipodi:type="arc"
         sodipodi:cx="22.344114"
         sodipodi:cy="3.2685997"
         sodipodi:rx="0.50011802"
         sodipodi:ry="0.5"
         sodipodi:start="0.065856307"
         sodipodi:end="0.030727909"
         sodipodi:open="true"
         sodipodi:arc-type="arc"
         d="M 22.843148,3.3015041 A 0.50011802,0.5 0 0 1 22.315586,3.7677856 0.50011802,0.5 0 0 1 21.844579,3.2444631 0.50011802,0.5 0 0 1 22.363869,2.76899 0.50011802,0.5 0 0 1 22.843996,3.2839613" />
      <path
         style="font-variation-settings:normal;vector-effect:none;fill:#000000;fill-opacity:1;fill-rule:nonzero;stroke-width:0.419921;stroke-linecap:butt;stroke-linejoin:miter;stroke-miterlimit:4;stroke-dasharray:none;stroke-dashoffset:0;stroke-opacity:1;-inkscape-stroke:none;stop-color:#000000"
         id="path16"
         sodipodi:type="arc"
         sodipodi:cx="24.884115"
         sodipodi:cy="3.2685997"
         sodipodi:rx="0.50011802"
         sodipodi:ry="0.5"
         sodipodi:start="0.065856307"
         sodipodi:end="0.030727909"
         sodipodi:open="true"
         sodipodi:arc-type="arc"
         d="M 25.383149,3.3015041 A 0.50011802,0.5 0 0 1 24.855587,3.7677856 0.50011802,0.5 0 0 1 24.38458,3.2444631 0.50011802,0.5 0 0 1 24.90387,2.76899 0.50011802,0.5 0 0 1 25.383997,3.2839613" />
      <path
         style="fill:#000000;fill-rule:nonzero;stroke-width:0.419921"
         id="path17"
         sodipodi:type="arc"
         sodipodi:cx="27.424116"
         sodipodi:cy="3.2685997"
         sodipodi:rx="0.50011802"
         sodipodi:ry="0.5"
         sodipodi:start="0.065856307"
         sodipodi:end="0.030727909"
         sodipodi:open="true"
         sodipodi:arc-type="arc"
         d="M 27.92315,3.3015041 A 0.50011802,0.5 0 0 1 27.395588,3.7677856 0.50011802,0.5 0 0 1 26.924581,3.2444631 0.50011802,0.5 0 0 1 27.443871,2.76899 0.50011802,0.5 0 0 1 27.923998,3.2839613" />
      <path
         style="fill:#000000;fill-rule:nonzero;stroke-width:0.419921"
         id="path18"
         sodipodi:type="arc"
         sodipodi:cx="4.564116"
         sodipodi:cy="10.5076"
         sodipodi:rx="0.50011802"
         sodipodi:ry="0.5"
         sodipodi:start="0.065856307"
         sodipodi:end="0.030727909"
         sodipodi:open="true"
         sodipodi:arc-type="arc"
         d="M 5.0631499,10.540504 A 0.50011802,0.5 0 0 1 4.5355877,11.006786 0.50011802,0.5 0 0 1 4.064581,10.483463 0.50011802,0.5 0 0 1 4.5838705,10.00799 0.50011802,0.5 0 0 1 5.0639979,10.522961" />
      <path
         style="fill:#000000;fill-rule:nonzero;stroke-width:0.419921"
         id="path19"
         sodipodi:type="arc"
         sodipodi:cx="7.1041164"
         sodipodi:cy="10.5076"
         sodipodi:rx="0.50011802"
         sodipodi:ry="0.5"
         sodipodi:start="0.065856307"
         sodipodi:end="0.030727909"
         sodipodi:open="true"
         sodipodi:arc-type="arc"
         d="M 7.6031503,10.540504 A 0.50011802,0.5 0 0 1 7.0755881,11.006786 0.50011802,0.5 0 0 1 6.6045815,10.483463 0.50011802,0.5 0 0 1 7.123871,10.00799 0.50011802,0.5 0 0 1 7.6039984,10.522961" />
      <path
         style="font-variation-settings:normal;vector-effect:none;fill:#000000;fill-opacity:1;fill-rule:nonzero;stroke-width:0.419921;stroke-linecap:butt;stroke-linejoin:miter;stroke-miterlimit:4;stroke-dasharray:none;stroke-dashoffset:0;stroke-opacity:1;-inkscape-stroke:none;stop-color:#000000"
         id="path20"
         sodipodi:type="arc"
         sodipodi:cx="9.6441164"
         sodipodi:cy="10.5076"
         sodipodi:rx="0.50011802"
         sodipodi:ry="0.5"
         sodipodi:start="0.065856307"
         sodipodi:end="0.030727909"
         sodipodi:open="true"
         sodipodi:arc-type="arc"
         d="M 10.14315,10.540504 A 0.50011802,0.5 0 0 1 9.6155881,11.006786 0.50011802,0.5 0 0 1 9.1445814,10.483463 0.50011802,0.5 0 0 1 9.6638709,10.00799 0.50011802,0.5 0 0 1 10.143998,10.522961" />
      <path
         style="fill:#000000;fill-rule:nonzero;stroke-width:0.419921"
         id="path21"
         sodipodi:type="arc"
         sodipodi:cx="12.184116"
         sodipodi:cy="10.5076"
         sodipodi:rx="0.50011802"
         sodipodi:ry="0.5"
         sodipodi:start="0.065856307"
         sodipodi:end="0.030727909"
         sodipodi:open="true"
         sodipodi:arc-type="arc"
         d="m 12.68315,10.540504 a 0.50011802,0.5 0 0 1 -0.527562,0.466282 0.50011802,0.5 0 0 1 -0.471007,-0.523323 0.50011802,0.5 0 0 1 0.51929,-0.475473 0.50011802,0.5 0 0 1 0.480127,0.514971" />
      <path
         style="fill:#000000;fill-rule:nonzero;stroke-width:0.419921"
         id="path22"
         sodipodi:type="arc"
         sodipodi:cx="14.724116"
         sodipodi:cy="10.5076"
         sodipodi:rx="0.50011802"
         sodipodi:ry="0.5"
         sodipodi:start="0.065856307"
         sodipodi:end="0.030727909"
         sodipodi:open="true"
         sodipodi:arc-type="arc"
         d="m 15.22315,10.540504 a 0.50011802,0.5 0 0 1 -0.527562,0.466282 0.50011802,0.5 0 0 1 -0.471007,-0.523323 0.50011802,0.5 0 0 1 0.51929,-0.475473 0.50011802,0.5 0 0 1 0.480127,0.514971" />
      <path
         style="fill:#000000;fill-rule:nonzero;stroke-width:0.419921"
         id="path23"
         sodipodi:type="arc"
         sodipodi:cx="17.264116"
         sodipodi:cy="10.5076"
         sodipodi:rx="0.50011802"
         sodipodi:ry="0.5"
         sodipodi:start="0.065856307"
         sodipodi:end="0.030727909"
         sodipodi:open="true"
         sodipodi:arc-type="arc"
         d="m 17.76315,10.540504 a 0.50011802,0.5 0 0 1 -0.527562,0.466282 0.50011802,0.5 0 0 1 -0.471007,-0.523323 0.50011802,0.5 0 0 1 0.51929,-0.475473 0.50011802,0.5 0 0 1 0.480127,0.514971" />
      <path
         style="font-variation-settings:normal;vector-effect:none;fill:#000000;fill-opacity:1;fill-rule:nonzero;stroke-width:0.419921;stroke-linecap:butt;stroke-linejoin:miter;stroke-miterlimit:4;stroke-dasharray:none;stroke-dashoffset:0;stroke-opacity:1;-inkscape-stroke:none;stop-color:#000000"
         id="path24"
         sodipodi:type="arc"
         sodipodi:cx="19.804113"
         sodipodi:cy="10.5076"
         sodipodi:rx="0.50011802"
         sodipodi:ry="0.5"
         sodipodi:start="0.065856307"
         sodipodi:end="0.030727909"
         sodipodi:open="true"
         sodipodi:arc-type="arc"
         d="m 20.303147,10.540504 a 0.50011802,0.5 0 0 1 -0.527562,0.466282 0.50011802,0.5 0 0 1 -0.471007,-0.523323 0.50011802,0.5 0 0 1 0.51929,-0.475473 0.50011802,0.5 0 0 1 0.480127,0.514971" />
      <path
         style="fill:#000000;fill-rule:nonzero;stroke-width:0.419921"
         id="path25"
         sodipodi:type="arc"
         sodipodi:cx="22.344114"
         sodipodi:cy="10.5076"
         sodipodi:rx="0.50011802"
         sodipodi:ry="0.5"
         sodipodi:start="0.065856307"
         sodipodi:end="0.030727909"
         sodipodi:open="true"
         sodipodi:arc-type="arc"
         d="m 22.843148,10.540504 a 0.50011802,0.5 0 0 1 -0.527562,0.466282 0.50011802,0.5 0 0 1 -0.471007,-0.523323 0.50011802,0.5 0 0 1 0.51929,-0.475473 0.50011802,0.5 0 0 1 0.480127,0.514971" />
      <path
         style="font-variation-settings:normal;vector-effect:none;fill:#000000;fill-opacity:1;fill-rule:nonzero;stroke-width:0.419921;stroke-linecap:butt;stroke-linejoin:miter;stroke-miterlimit:4;stroke-dasharray:none;stroke-dashoffset:0;stroke-opacity:1;-inkscape-stroke:none;stop-color:#000000"
         id="path26"
         sodipodi:type="arc"
         sodipodi:cx="24.884115"
         sodipodi:cy="10.5076"
         sodipodi:rx="0.50011802"
         sodipodi:ry="0.5"
         sodipodi:start="0.065856307"
         sodipodi:end="0.030727909"
         sodipodi:open="true"
         sodipodi:arc-type="arc"
         d="m 25.383149,10.540504 a 0.50011802,0.5 0 0 1 -0.527562,0.466282 0.50011802,0.5 0 0 1 -0.471007,-0.523323 0.50011802,0.5 0 0 1 0.51929,-0.475473 0.50011802,0.5 0 0 1 0.480127,0.514971" />
      <path
         style="fill:#000000;fill-rule:nonzero;stroke-width:0.419921"
         id="path27"
         sodipodi:type="arc"
         sodipodi:cx="27.424116"
         sodipodi:cy="10.5076"
         sodipodi:rx="0.50011802"
         sodipodi:ry="0.5"
         sodipodi:start="0.065856307"
         sodipodi:end="0.030727909"
         sodipodi:open="true"
         sodipodi:arc-type="arc"
         d="m 27.92315,10.540504 a 0.50011802,0.5 0 0 1 -0.527562,0.466282 0.50011802,0.5 0 0 1 -0.471007,-0.523323 0.50011802,0.5 0 0 1 0.51929,-0.475473 0.50011802,0.5 0 0 1 0.480127,0.514971" />
      <text
         xml:space="preserve"
         style="font-size:1.41111px;font-variation-settings:normal;word-spacing:1.18561px;white-space:pre;inline-size:22.2342;display:inline;opacity:1;vector-effect:none;fill:#ff0000;fill-opacity:1;fill-rule:nonzero;stroke-width:0.41992;stroke-linecap:butt;stroke-linejoin:miter;stroke-miterlimit:4;stroke-dasharray:none;stroke-dashoffset:0;stroke-opacity:1;-inkscape-stroke:none"
         x="1.0880328"
         y="7.7789998"
         id="text28"
         transform="matrix(0.9995263,0,0,1,5.6037813,1.751908)"><tspan
           x="1.0880328"
           y="7.7789998"
           id="tspan8"><tspan
             dx="0 -1.1856101 1.1856102 -1.1856101 1.1856102 -1.1856103 1.1856104 -1.1856098 1.1856099 -1.1856103 1.1856099 -1.1856093 1.1856099 -1.1856093 1.1856099 -1.1856103 1.1856099 -1.1856103"
             style="stroke-width:0.419921"
             id="tspan7">9 8 7 6 5 4 3 2 1 </tspan></tspan></text>
      <text
         xml:space="preserve"
         style="font-size:1.41111px;font-variation-settings:normal;word-spacing:1.18269px;white-space:pre;inline-size:22.2342;display:inline;vector-effect:none;fill:#ff0000;fill-opacity:1;fill-rule:nonzero;stroke-width:0.41992;stroke-linecap:butt;stroke-linejoin:miter;stroke-miterlimit:4;stroke-dasharray:none;stroke-dashoffset:0;stroke-opacity:1;-inkscape-stroke:none"
         x="1.0880328"
         y="7.7789998"
         id="text29"
         transform="translate(2.5670781,1.751908)"><tspan
           x="1.0880328"
           y="7.7789998"
           id="tspan9">10</tspan></text>
      <g
         id="g32">
        <text
           xml:space="preserve"
           transform="matrix(0.26458333,0,0,0.26458333,2.9560417,1.4200157)"
           id="text31"
           style="font-size:5.33333px;font-variation-settings:normal;word-spacing:1.15px;white-space:pre;shape-inside:url(#rect32);display:inline;opacity:1;vector-effect:none;fill:#ff0000;fill-opacity:1;fill-rule:nonzero;stroke-width:1.5871;stroke-linecap:butt;stroke-linejoin:miter;stroke-miterlimit:4;stroke-dasharray:none;stroke-dashoffset:0;stroke-opacity:1;-inkscape-stroke:none"><tspan
             x="2.6308594"
             y="14.527341"
             id="tspan11"><tspan
               dx="0 0 -1.15 1.1499996 0 -1.1499995 1.1499987 0 -1.1500005 1.1500006 0 -1.1500005 1.1499987 0 -1.1499966 1.1499987 0 -1.1500005 1.1500025 0 -1.1500005 1.1500025 0 -1.1500005 1.1499949 0 -1.1500005 1.1500025"
               id="tspan10">11 12 13 14 15 16 17 18 19 20</tspan></tspan></text>
      </g>
      <path
         style="font-variation-settings:normal;opacity:1;vector-effect:none;fill:#000000;fill-opacity:1;fill-rule:nonzero;stroke-width:0.464532;stroke-linecap:butt;stroke-linejoin:miter;stroke-miterlimit:4;stroke-dasharray:none;stroke-dashoffset:0;stroke-opacity:1;-inkscape-stroke:none"
         id="path31"
         sodipodi:type="arc"
         sodipodi:cx="29.452589"
         sodipodi:cy="7.086709"
         sodipodi:rx="0.91854912"
         sodipodi:ry="0.96530938"
         sodipodi:start="1.5707963"
         sodipodi:end="4.712389"
         sodipodi:open="true"
         sodipodi:arc-type="arc"
         d="m 29.452589,8.0520184 a 0.91854912,0.96530938 0 0 1 -0.795487,-0.4826547 0.91854912,0.96530938 0 0 1 0,-0.9653094 0.91854912,0.96530938 0 0 1 0.795487,-0.4826547" />
      <rect
         style="fill:none;fill-opacity:0.01105;stroke:#000000;stroke-width:0.41992;stroke-opacity:1;-inkscape-stroke:none"
         id="rect31"
         width="26.923996"
         height="10.007599"
         x="2.5399978"
         y="1.8795995" />
    </g>
    <use
       x="0"
       y="0"
       inkscape:tiled-clone-of="#g33"
       xlink:href="#g33"
       id="use103" />
    <use
       x="0"
       y="0"
       inkscape:tiled-clone-of="#g33"
       xlink:href="#g33"
       transform="translate(2.2509082e-7,11.47027)"
       id="use104" />
    <use
       x="0"
       y="0"
       inkscape:tiled-clone-of="#g33"
       xlink:href="#g33"
       transform="translate(2.2509082e-7,22.94054)"
       id="use105" />
    <use
       x="0"
       y="0"
       inkscape:tiled-clone-of="#g33"
       xlink:href="#g33"
       transform="translate(2.2509082e-7,34.41081)"
       id="use106" />
    <use
       x="0"
       y="0"
       inkscape:tiled-clone-of="#g33"
       xlink:href="#g33"
       transform="translate(2.2509082e-7,45.88108)"
       id="use107" />
    <use
       x="0"
       y="0"
       inkscape:tiled-clone-of="#g33"
       xlink:href="#g33"
       transform="translate(2.2509082e-7,57.35135)"
       id="use108" />
    <use
       x="0"
       y="0"
       inkscape:tiled-clone-of="#g33"
       xlink:href="#g33"
       transform="translate(30.078305)"
       id="use109" />
    <use
       x="0"
       y="0"
       inkscape:tiled-clone-of="#g33"
       xlink:href="#g33"
       transform="translate(30.078305,11.47027)"
       id="use110" />
    <use
       x="0"
       y="0"
       inkscape:tiled-clone-of="#g33"
       xlink:href="#g33"
       transform="translate(30.078305,22.94054)"
       id="use111" />
    <use
       x="0"
       y="0"
       inkscape:tiled-clone-of="#g33"
       xlink:href="#g33"
       transform="translate(30.078305,34.41081)"
       id="use112" />
    <use
       x="0"
       y="0"
       inkscape:tiled-clone-of="#g33"
       xlink:href="#g33"
       transform="translate(30.078305,45.88108)"
       id="use113" />
    <use
       x="0"
       y="0"
       inkscape:tiled-clone-of="#g33"
       xlink:href="#g33"
       transform="translate(30.078305,57.35135)"
       id="use114" />
    <use
       x="0"
       y="0"
       inkscape:tiled-clone-of="#g33"
       xlink:href="#g33"
       transform="translate(60.156611)"
       id="use115" />
    <use
       x="0"
       y="0"
       inkscape:tiled-clone-of="#g33"
       xlink:href="#g33"
       transform="translate(60.156611,11.47027)"
       id="use116" />
    <use
       x="0"
       y="0"
       inkscape:tiled-clone-of="#g33"
       xlink:href="#g33"
       transform="translate(60.156611,22.94054)"
       id="use117" />
    <use
       x="0"
       y="0"
       inkscape:tiled-clone-of="#g33"
       xlink:href="#g33"
       transform="translate(60.156611,34.41081)"
       id="use118" />
    <use
       x="0"
       y="0"
       inkscape:tiled-clone-of="#g33"
       xlink:href="#g33"
       transform="translate(60.156611,45.88108)"
       id="use119" />
    <use
       x="0"
       y="0"
       inkscape:tiled-clone-of="#g33"
       xlink:href="#g33"
       transform="translate(60.156611,57.35135)"
       id="use120" />
    <use
       x="0"
       y="0"
       inkscape:tiled-clone-of="#g33"
       xlink:href="#g33"
       transform="translate(90.234916)"
       id="use121" />
    <use
       x="0"
       y="0"
       inkscape:tiled-clone-of="#g33"
       xlink:href="#g33"
       transform="translate(90.234916,11.47027)"
       id="use122" />
    <use
       x="0"
       y="0"
       inkscape:tiled-clone-of="#g33"
       xlink:href="#g33"
       transform="translate(90.234916,22.94054)"
       id="use123" />
    <use
       x="0"
       y="0"
       inkscape:tiled-clone-of="#g33"
       xlink:href="#g33"
       transform="translate(90.234916,34.41081)"
       id="use124" />
    <use
       x="0"
       y="0"
       inkscape:tiled-clone-of="#g33"
       xlink:href="#g33"
       transform="translate(90.234916,45.88108)"
       id="use125" />
    <use
       x="0"
       y="0"
       inkscape:tiled-clone-of="#g33"
       xlink:href="#g33"
       transform="translate(90.234916,57.35135)"
       id="use126" />
    <use
       x="0"
       y="0"
       inkscape:tiled-clone-of="#g33"
       xlink:href="#g33"
       transform="translate(120.31322)"
       id="use127" />
    <use
       x="0"
       y="0"
       inkscape:tiled-clone-of="#g33"
       xlink:href="#g33"
       transform="translate(120.31322,11.47027)"
       id="use128" />
    <use
       x="0"
       y="0"
       inkscape:tiled-clone-of="#g33"
       xlink:href="#g33"
       transform="translate(120.31322,22.94054)"
       id="use129" />
    <use
       x="0"
       y="0"
       inkscape:tiled-clone-of="#g33"
       xlink:href="#g33"
       transform="translate(120.31322,34.41081)"
       id="use130" />
    <use
       x="0"
       y="0"
       inkscape:tiled-clone-of="#g33"
       xlink:href="#g33"
       transform="translate(120.31322,45.88108)"
       id="use131" />
    <use
       x="0"
       y="0"
       inkscape:tiled-clone-of="#g33"
       xlink:href="#g33"
       transform="translate(120.31322,57.35135)"
       id="use132" />
    <use
       x="0"
       y="0"
       inkscape:tiled-clone-of="#g33"
       xlink:href="#g33"
       transform="translate(150.39153)"
       id="use133" />
    <use
       x="0"
       y="0"
       inkscape:tiled-clone-of="#g33"
       xlink:href="#g33"
       transform="translate(150.39153,11.47027)"
       id="use134" />
    <use
       x="0"
       y="0"
       inkscape:tiled-clone-of="#g33"
       xlink:href="#g33"
       transform="translate(150.39153,22.94054)"
       id="use135" />
    <use
       x="0"
       y="0"
       inkscape:tiled-clone-of="#g33"
       xlink:href="#g33"
       transform="translate(150.39153,34.41081)"
       id="use136" />
    <use
       x="0"
       y="0"
       inkscape:tiled-clone-of="#g33"
       xlink:href="#g33"
       transform="translate(150.39153,45.88108)"
       id="use137" />
    <use
       x="0"
       y="0"
       inkscape:tiled-clone-of="#g33"
       xlink:href="#g33"
       transform="translate(150.39153,57.35135)"
       id="use138" />
  </g>
</svg>
